solid OpenSCAD_Model
  facet normal -1 0 0
    outer loop
      vertex -10 -10 0
      vertex -10 10 100
      vertex -10 10 0
    endloop
  endfacet
  facet normal -1 -0 0
    outer loop
      vertex -10 10 100
      vertex -10 -10 0
      vertex -10 -10 100
    endloop
  endfacet
  facet normal 0 0 1
    outer loop
      vertex 10 10 100
      vertex 9.7 9.7 100
      vertex 10 -10 100
    endloop
  endfacet
  facet normal 0 0 1
    outer loop
      vertex 10 10 100
      vertex -9.7 9.7 100
      vertex 9.7 9.7 100
    endloop
  endfacet
  facet normal 0 0 1
    outer loop
      vertex -9.7 9.7 100
      vertex -10 10 100
      vertex -9.7 -9.7 100
    endloop
  endfacet
  facet normal -0 0 1
    outer loop
      vertex -10 10 100
      vertex -9.7 9.7 100
      vertex 10 10 100
    endloop
  endfacet
  facet normal -0 0 1
    outer loop
      vertex 9.7 -9.7 100
      vertex 10 -10 100
      vertex 9.7 9.7 100
    endloop
  endfacet
  facet normal -0 0 1
    outer loop
      vertex -9.7 -9.7 100
      vertex 10 -10 100
      vertex 9.7 -9.7 100
    endloop
  endfacet
  facet normal 0 0 1
    outer loop
      vertex -9.7 -9.7 100
      vertex -10 -10 100
      vertex 10 -10 100
    endloop
  endfacet
  facet normal 0 0 1
    outer loop
      vertex -10 -10 100
      vertex -9.7 -9.7 100
      vertex -10 10 100
    endloop
  endfacet
  facet normal 1 -0 0
    outer loop
      vertex 10 -10 100
      vertex 10 10 0
      vertex 10 10 100
    endloop
  endfacet
  facet normal 1 0 0
    outer loop
      vertex 10 10 0
      vertex 10 -10 100
      vertex 10 -10 0
    endloop
  endfacet
  facet normal 0 1 -0
    outer loop
      vertex 10 10 0
      vertex -10 10 100
      vertex 10 10 100
    endloop
  endfacet
  facet normal 0 1 0
    outer loop
      vertex -10 10 100
      vertex 10 10 0
      vertex -10 10 0
    endloop
  endfacet
  facet normal 0 0 -1
    outer loop
      vertex -10 -10 0
      vertex 10 10 0
      vertex 10 -10 0
    endloop
  endfacet
  facet normal -0 0 -1
    outer loop
      vertex 10 10 0
      vertex -10 -10 0
      vertex -10 10 0
    endloop
  endfacet
  facet normal 0 -1 0
    outer loop
      vertex -10 -10 0
      vertex 10 -10 100
      vertex -10 -10 100
    endloop
  endfacet
  facet normal 0 -1 -0
    outer loop
      vertex 10 -10 100
      vertex -10 -10 0
      vertex 10 -10 0
    endloop
  endfacet
  facet normal 1 -0 0
    outer loop
      vertex -9.7 -9.7 100
      vertex -9.7 9.7 0.3
      vertex -9.7 9.7 100
    endloop
  endfacet
  facet normal 1 0 0
    outer loop
      vertex -9.7 9.7 0.3
      vertex -9.7 -9.7 100
      vertex -9.7 -9.7 0.3
    endloop
  endfacet
  facet normal -1 0 0
    outer loop
      vertex 9.7 -9.7 0.3
      vertex 9.7 9.7 100
      vertex 9.7 9.7 0.3
    endloop
  endfacet
  facet normal -1 -0 0
    outer loop
      vertex 9.7 9.7 100
      vertex 9.7 -9.7 0.3
      vertex 9.7 -9.7 100
    endloop
  endfacet
  facet normal 0 -1 0
    outer loop
      vertex -9.7 9.7 0.3
      vertex 9.7 9.7 100
      vertex -9.7 9.7 100
    endloop
  endfacet
  facet normal 0 -1 -0
    outer loop
      vertex 9.7 9.7 100
      vertex -9.7 9.7 0.3
      vertex 9.7 9.7 0.3
    endloop
  endfacet
  facet normal -0 0 1
    outer loop
      vertex -9.7 9.7 0.3
      vertex 9.7 -9.7 0.3
      vertex 9.7 9.7 0.3
    endloop
  endfacet
  facet normal 0 0 1
    outer loop
      vertex 9.7 -9.7 0.3
      vertex -9.7 9.7 0.3
      vertex -9.7 -9.7 0.3
    endloop
  endfacet
  facet normal 0 1 -0
    outer loop
      vertex 9.7 -9.7 0.3
      vertex -9.7 -9.7 100
      vertex 9.7 -9.7 100
    endloop
  endfacet
  facet normal 0 1 0
    outer loop
      vertex -9.7 -9.7 100
      vertex 9.7 -9.7 0.3
      vertex -9.7 -9.7 0.3
    endloop
  endfacet
endsolid OpenSCAD_Model
